<?xml version="1.0" encoding="UTF-8" standalone="no"?>
<!DOCTYPE svg PUBLIC "-//W3C//DTD SVG 1.1//EN" "http://www.w3.org/Graphics/SVG/1.1/DTD/svg11.dtd">
<svg width="100%" height="100%" viewBox="0 0 149 141" version="1.1" xmlns="http://www.w3.org/2000/svg" xmlns:xlink="http://www.w3.org/1999/xlink" xml:space="preserve" xmlns:serif="http://www.serif.com/" style="fill-rule:evenodd;clip-rule:evenodd;stroke-linecap:round;stroke-linejoin:round;">
    <g transform="matrix(1,0,0,1,-29.1525,-33.0094)">
        <path d="M37.939,158.204C32.51,152.775 29.153,145.275 29.153,136.991C29.153,114.929 29.153,85.071 29.153,63.009C29.153,46.441 42.584,33.009 59.153,33.009C83.204,33.009 116.796,33.009 140.847,33.009C149.132,33.009 156.632,36.367 162.061,41.796C162.061,41.796 168.386,48.121 168.386,48.121C173.815,53.55 177.173,61.05 177.173,69.335C177.173,91.396 177.173,121.254 177.173,143.316C177.173,159.884 163.741,173.316 147.173,173.316C123.121,173.316 89.53,173.316 65.478,173.316C57.194,173.316 49.694,169.958 44.265,164.529L37.939,158.204ZM164.597,63.009L164.597,136.991C164.597,150.107 153.964,160.741 140.848,160.741C140.847,160.741 59.153,160.741 59.153,160.741C46.036,160.741 35.403,150.107 35.403,136.991C35.403,136.991 35.403,63.009 35.403,63.009C35.403,49.893 46.036,39.259 59.152,39.259C59.153,39.259 140.847,39.259 140.847,39.259C153.964,39.259 164.597,49.893 164.597,63.009Z"/>
    </g>
    <g transform="matrix(3.37036,0,0,3.37036,30.4031,26.5463)">
        <path d="M5,12L3,12L12,3L21,12L19,12M5,12L5,19C5,20.097 5.903,21 7,21L17,21C18.097,21 19,20.097 19,19L19,12" style="fill:none;fill-rule:nonzero;stroke:black;stroke-width:1.85px;"/>
    </g>
    <g transform="matrix(3.37036,0,0,3.37036,30.4031,26.5463)">
        <path d="M9,21L9,15C9,13.903 9.903,13 11,13L13,13C14.097,13 15,13.903 15,15L15,21" style="fill:none;fill-rule:nonzero;stroke:black;stroke-width:1.85px;"/>
    </g>
</svg>
