<svg xmlns="http://www.w3.org/2000/svg" viewBox="0 0 100 100"><path d="M40 77.5h5v5h-5zm15 0h5v5h-5zm-41.25-40a8.683 8.683 0 0 0 3.75-.856v14.214A34.142 34.142 0 0 0 27.5 75v5c0 8.284 6.716 15 15 15h15c8.284 0 15-6.716 15-15v-5a34.142 34.142 0 0 0 10-24.142V36.644a8.683 8.683 0 0 0 3.75.856c4.825 0 8.75-3.925 8.75-8.75V22.5H82.5V11.972A6.98 6.98 0 0 0 75.528 5a6.94 6.94 0 0 0-6.474 4.383L66.807 15H33.193l-2.247-5.618A6.94 6.94 0 0 0 24.472 5a6.98 6.98 0 0 0-6.972 6.972V22.5H5v6.25c0 4.825 3.925 8.75 8.75 8.75zm68.75-10H90v1.25c0 2.068-1.682 3.75-3.75 3.75s-3.75-1.682-3.75-3.75V27.5zM65 80a7.51 7.51 0 0 1-7.5 7.5h-15A7.51 7.51 0 0 1 35 80v-2.5c0-2.757 2.243-5 5-5h20c2.757 0 5 2.243 5 5V80zm8.697-68.76A1.963 1.963 0 0 1 75.528 10c1.087 0 1.972.885 1.972 1.972V15h-5.307l1.504-3.76zM75 22.5v28.358c0 7.116-2.771 13.807-7.803 18.839l-.447.447A9.948 9.948 0 0 0 60 67.5H40a9.952 9.952 0 0 0-6.75 2.643l-.447-.447A26.46 26.46 0 0 1 25 50.858V22.5h50zM22.5 11.972c0-1.087.885-1.972 1.972-1.972.811 0 1.53.487 1.831 1.239L27.807 15H22.5v-3.028zM10 27.5h7.5v1.25c0 2.068-1.682 3.75-3.75 3.75S10 30.818 10 28.75V27.5zM32.5 45c0-2.757 2.243-5 5-5s5 2.243 5 5h5c0-5.514-4.486-10-10-10s-10 4.486-10 10h5zm25 0c0-2.757 2.243-5 5-5s5 2.243 5 5h5c0-5.514-4.486-10-10-10s-10 4.486-10 10h5z"/></svg>