<svg xmlns="http://www.w3.org/2000/svg" viewBox="0 0 100 100"><path d="M82.82 49.81a2.5 2.5 0 0 0-.87 4.92c5.15.91 10.35 6.11 10.35 15.69 0 10.8-8 23.58-14.76 23.58a5.78 5.78 0 0 1-4.44-1.95 4.93 4.93 0 0 0-7.81 0A5.78 5.78 0 0 1 60.84 94c-6.76 0-14.76-12.78-14.76-23.58 0-10.29 6.16-15.84 12-15.84s8 2.16 9.2 3.32l.09.08a22.11 22.11 0 0 0-.67 4.94 5.39 5.39 0 0 1-1.3-.93 2.503 2.503 0 1 0-3.54 3.54 10.4 10.4 0 0 0 14.71 0A2.51 2.51 0 1 0 73 62a5.39 5.39 0 0 1-1.35 1c0-2.23.77-10.22 9.9-17.52a2.5 2.5 0 1 0-3.12-3.9 36.44 36.44 0 0 0-4.78 4.58 16.39 16.39 0 0 0-12.57-14.29 3.38 3.38 0 0 0-3.82 1.79 16.33 16.33 0 0 0-.2 14.3 16.6 16.6 0 0 0 .94 1.63c-8.19.06-16.86 7.35-16.86 20.83C41.09 83 50.39 99 60.84 99a10.67 10.67 0 0 0 7.82-3.26l.53-.47.53.47A10.67 10.67 0 0 0 77.54 99C88 99 97.3 83 97.3 70.42S90 51.08 82.82 49.81zM61.21 37.12a11.39 11.39 0 0 1 6.84 14.61 11.39 11.39 0 0 1-6.84-14.61zM2.7 56a13 13 0 0 0 13 13h17.88a2.5 2.5 0 0 0 0-5H15.7a8 8 0 0 1 0-16H44a2.5 2.5 0 0 0 0-5H15.7a8 8 0 1 1 0-16h6.89v9.14a2.5 2.5 0 0 0 4.08 1.93l7.6-6.22 7.6 6.22A2.5 2.5 0 0 0 46 36.14V27h35.39a2.5 2.5 0 0 0 0-5H46v-8a2.5 2.5 0 0 0-2.5-2.5H25.09a2.5 2.5 0 0 0-2.5 2.5v8H15.7a8 8 0 0 1 0-16h66.37a2.5 2.5 0 0 0 0-5H15.7a13 13 0 0 0-7.63 23.5 13 13 0 0 0 0 21A13 13 0 0 0 2.7 56zm24.89-39.5H41v14.36l-5.1-4.18a2.5 2.5 0 0 0-3.17 0l-5.1 4.18z"/></svg>