<svg xmlns="http://www.w3.org/2000/svg" xmlns:xlink="http://www.w3.org/1999/xlink" width="839.387" height="834.645"><style>.B{stroke:#2f2e41}.C{stroke-miterlimit:10}.D{fill:#378b25}.E{fill:#ffc1c7}.F{fill:#2f2e41}</style><g fill="none" class="C"><g class="B"><path d="M569.347 224.369q15.11 7.976 29.54 16.324M381.885 191.421c43.939 9.501 91.91 25.903 140.236 49.05a670.895 670.895 0 01100.103 58.751"/></g><path stroke="#3f3d56" d="M235.63 832.573h450.533"/><path d="M340.77 184.389c13.204 1.623 26.95 3.969 41.114 7.032M211.555 322.155c-24.394-35.699-32.774-69.428-20.241-95.594 13.862-28.941 50.969-43.745 101.268-44.835m432.671 220.165c20.333 32.731 26.641 63.418 15.044 87.629-10.206 21.306-33.009 34.951-64.4 41.102m-53.674-231.399a498.08 498.08 0 0157.619 47.756M198.048 139.888c40.492-8.699 92.891-7.153 151.493 4.399m437.845 257.6c18.128 26.48 29.277 52.104 32.19 75.44M598.887 240.692q27.274 15.769 51.899 32.62" class="B"/><path d="M624.944 630.714a25.07 25.07 0 00-21.61 15.11c-5.404 13.062 1.554 28.405 11.999 37.93s23.861 14.969 36.052 22.126c16.374 9.612 31.087 22.955 39.279 40.083s9.064 38.345-.566 54.708c-8.938 15.188-25.191 24.277-40.692 32.661" stroke="#3f3d56"/></g><g fill="#57b894"><ellipse cx="638.71" cy="631.851" rx="19.09" ry="9.272"/><ellipse cx="653.983" cy="692.941" rx="19.09" ry="9.272"/><ellipse cx="619.074" cy="702.759" rx="19.09" ry="9.272"/><ellipse cx="673.618" cy="754.03" rx="19.09" ry="9.272"/><ellipse cx="711.799" cy="754.03" rx="19.09" ry="9.272"/></g><path d="M522.642 270.647h10.755s9.858 76.178 2.689 83.348-26.886 11.651-29.575 0 0-54.669 0-54.669z" class="D"/><ellipse cx="452.289" cy="204.328" rx="65.424" ry="76.626" class="F"/><use xlink:href="#B" class="E"/><use xlink:href="#B" opacity=".1"/><g class="E"><path d="M397.172 539.709s-10.755 97.687 0 120.989 39.433 88.725 39.433 88.725l-8.962 18.82 24.198-5.377 9.858-18.82s-11.651-45.707-13.443-61.839S433.02 636.5 433.02 636.5l25.094-106.649zm85.14-16.33s.896 98.583 7.17 113.875l-3.585 133.536 19.717 2.632s28.679-112.027 24.198-138.913.896-123.677.896-123.677z"/><circle cx="452.289" cy="196.71" r="34.056"/></g><path d="M568.348 535.926s-24.198 16.132-34.056 4.481-130.847 7.17-146.083 3.585 8.066-60.942 8.066-90.517c0-22.127 8.03-55.789 12.072-71.347l2.267-8.415s9.195-26.16 7.474-37.032a9.35 9.35 0 00-.672-2.393 4.879 4.879 0 00-.529-.905c-4.293-5.727-16.598-47.49-21.375-65.424a80.836 80.836 0 01-1.927-8.066c0-2.689 33.16-10.755 41.45-11.14 8.299-.385 10.53 11.14 10.53 11.14 2.689 1.792 15.236 33.16 15.236 33.16l11.651-29.575s-.896-6.273-1.792-6.273 13.255-8.46 13.255-8.46 14.528 10.253 22.593 8.46 26.886 14.339 26.886 14.339-33.16 83.348-19.717 101.272 54.669 163.111 54.669 163.111z" class="D"/><g class="F"><path d="M459.011 740.46s-15.236 15.236-15.236 17.028l-12.547-5.377-6.273 22.405c-.896 2.689-16.132 26.886-31.367 37.641s0 24.198 13.443 21.509 47.499-33.16 47.499-33.16 23.302 0 31.367-17.924c0 0-21.509-43.914-26.886-42.122z"/><path d="M503.821 766.309s-23.023-16.728-24.507-1.194-1.483 49.59-1.483 49.59-7.17 22.405 15.236 19.717 24.198-8.962 24.198-8.962l-10.755-43.018v-18.82z"/></g><path d="M416.889 333.382c-4.293-5.727-16.598-47.49-21.375-65.424h4.347l17.557 66.329a4.88 4.88 0 00-.529-.905zm59.15 59.15s-12.547.896-58.254-8.066a91.36 91.36 0 01-9.437-2.339l2.267-8.415s9.195-26.16 7.474-37.032c2.142 7.528 3.737 12.61 4.176 12.834 1.792.896 59.15 10.755 67.216 14.339s-13.443 28.679-13.443 28.679z" opacity=".1"/><use xlink:href="#C" opacity=".1"/><path d="M479.623 357.58s37.641 4.481 43.914 0 32.264-4.481 26.886 8.066-51.98 13.443-51.98 13.443h-26.886z" class="E"/><path d="M399.86 261.685h-6.273s-12.547 2.689-10.755 42.122-10.755 65.424 34.952 74.386 58.254 8.066 58.254 8.066 21.509-25.094 13.443-28.679-65.424-13.443-67.216-14.339-22.405-81.555-22.405-81.555z" class="D"/><path d="M517.733 279.374s-15.704-58.915-28.251-58.915-26.886 2.689-16.132 14.339 24.198 24.198 25.094 30.471 4.481 15.236 4.481 15.236z" class="E"/><use xlink:href="#C" x="3.585" class="D"/><circle cx="443.327" cy="164.446" r="32.264" class="F"/><path d="M573.337 529.167c-50.068-8.252-106.709-26.19-163.846-53.558-65.057-31.162-120.184-69.485-159.465-108.217m120.311 125.073c-44.792-23.206-85.344-49.006-120.312-75.867" fill="none" class="B C"/><circle cx="53.7" cy="76.078" r="53.7" class="D"/><circle cx="66.297" cy="54.2" r="53.7" fill="none" class="B"/><circle cx="800.314" cy="270.044" r="31.244" fill="#f2f2f2"/><circle cx="807.643" cy="257.315" r="31.244" fill="none" class="B"/><circle cx="230.363" cy="595.729" r="44.913" fill="#f2f2f2"/><circle cx="240.898" cy="577.431" r="44.913" fill="none" class="B"/><defs><path id="B" d="M437.501 218.667s3.585 29.575-7.17 35.848 12.547 42.122 12.547 42.122l27.783 7.17 18.82-25.99-3.585-26.886s-21.509-21.509-11.651-41.226z"/><path id="C" d="M492.17 275.237s24.72-3.05 26.251.958 7.805 42.744 10.494 47.71 3.585 35.756-7.17 36.749-25.094-9.932-22.405-18.871-7.17-66.546-7.17-66.546z"/></defs></svg>