<svg xmlns="http://www.w3.org/2000/svg" width="133.333" height="86.667" viewBox="0 0 100 65"><defs><clipPath id="a"><path d="M0 0h100v65H0z"/></clipPath></defs><g clip-path="url(#a)"><path d="M24.5 11a1.499 1.499 0 1 1 0-3h58a1.499 1.499 0 1 1 0 3h-58z"/><path d="M81 9.5a1.499 1.499 0 1 1 3 0v50a1.499 1.499 0 1 1-3 0v-50z"/><path d="m81.44 58.44 7-7a1.499 1.499 0 1 1 2.12 2.12l-7 7a1.499 1.499 0 1 1-2.12-2.12z"/><path d="m81.44 60.56-7-7a1.499 1.499 0 1 1 2.12-2.12l7 7a1.499 1.499 0 1 1-2.12 2.12z"/></g></svg>