<svg width="1024" height="700" xmlns="http://www.w3.org/2000/svg" xmlns:xlink="http://www.w3.org/1999/xlink">
    <path id="Est-1899" fill="#08755e" fill-rule="evenodd" stroke="none" d="M 639.796448 617.926025 C 638.955688 618.48645 638.061035 618.90686 637.112488 619.187134 C 636.163879 619.467407 635.150696 619.607544 634.072754 619.607544 C 630.407898 619.607544 627.265808 618.346375 624.646484 615.824097 C 622.027161 613.301758 620.717529 609.89563 620.717529 605.60553 C 620.717529 600.647095 622.258911 596.885254 625.341736 594.319824 C 628.424561 591.754395 631.884583 590.471741 635.721985 590.471741 C 640.098267 590.471741 643.725403 592.126343 646.603394 595.435486 C 649.481445 598.744629 650.92041 603.632935 650.92041 610.100403 C 650.92041 617.861328 649.050293 624.107788 645.309937 628.839783 C 641.56958 633.571777 636.681335 635.937744 630.64502 635.937744 C 627.713135 635.937744 625.492676 635.436523 623.983582 634.434082 C 622.474487 633.431641 621.719971 632.208252 621.719971 630.763794 C 621.719971 629.793701 622.086487 628.963745 622.819458 628.273865 C 623.552429 627.583984 624.414734 627.239075 625.406433 627.239075 C 626.247192 627.239075 626.963989 627.443848 627.556824 627.853516 C 628.149658 628.263062 628.84491 629.017578 629.642578 630.117065 C 630.591125 631.432129 631.766052 632.089661 633.167297 632.089661 C 635.064453 632.089661 636.535767 631.0495 637.58136 628.969116 C 638.626892 626.888794 639.365295 623.207764 639.796448 617.926025 Z M 631.582825 605.476196 C 631.582825 609.248901 631.927734 611.905884 632.617615 613.447266 C 633.307434 614.988708 634.43927 615.759399 636.013 615.759399 C 637.565186 615.759399 638.69696 615.074951 639.408386 613.705994 C 640.119812 612.337036 640.475525 609.927979 640.475525 606.478638 C 640.475525 601.606445 640.082092 598.329712 639.295227 596.648132 C 638.508362 594.966553 637.360413 594.125854 635.851318 594.125854 C 634.988953 594.125854 634.191345 594.422241 633.458374 595.015137 C 632.725403 595.607971 632.229553 596.545715 631.970825 597.82843 C 631.712158 599.111145 631.582825 601.6604 631.582825 605.476196 Z M 603.934509 617.926025 C 603.09375 618.48645 602.199097 618.90686 601.250549 619.187134 C 600.302002 619.467407 599.288757 619.607544 598.210876 619.607544 C 594.545959 619.607544 591.403931 618.346375 588.784607 615.824097 C 586.165283 613.301758 584.855591 609.89563 584.855591 605.60553 C 584.855591 600.647095 586.397034 596.885254 589.479797 594.319824 C 592.562622 591.754395 596.022705 590.471741 599.860046 590.471741 C 604.236389 590.471741 607.863464 592.126343 610.741516 595.435486 C 613.619507 598.744629 615.058533 603.632935 615.058533 610.100403 C 615.058533 617.861328 613.188354 624.107788 609.447998 628.839783 C 605.707703 633.571777 600.819397 635.937744 594.783142 635.937744 C 591.851196 635.937744 589.630737 635.436523 588.121643 634.434082 C 586.61261 633.431641 585.858093 632.208252 585.858093 630.763794 C 585.858093 629.793701 586.224548 628.963745 586.95752 628.273865 C 587.690491 627.583984 588.552795 627.239075 589.544495 627.239075 C 590.385254 627.239075 591.102051 627.443848 591.694946 627.853516 C 592.287781 628.263062 592.983032 629.017578 593.78064 630.117065 C 594.729248 631.432129 595.904114 632.089661 597.30542 632.089661 C 599.202515 632.089661 600.673889 631.0495 601.719421 628.969116 C 602.765015 626.888794 603.503357 623.207764 603.934509 617.926025 Z M 595.720886 605.476196 C 595.720886 609.248901 596.065796 611.905884 596.755676 613.447266 C 597.445557 614.988708 598.577332 615.759399 600.151062 615.759399 C 601.703308 615.759399 602.835083 615.074951 603.546509 613.705994 C 604.257935 612.337036 604.613647 609.927979 604.613647 606.478638 C 604.613647 601.606445 604.220215 598.329712 603.433289 596.648132 C 602.646423 594.966553 601.498474 594.125854 599.98938 594.125854 C 599.127075 594.125854 598.329407 594.422241 597.596436 595.015137 C 596.863464 595.607971 596.367615 596.545715 596.108948 597.82843 C 595.85022 599.111145 595.720886 601.6604 595.720886 605.476196 Z M 558.824219 611.620239 C 555.612 610.951904 553.197571 609.771606 551.580688 608.079346 C 549.963806 606.386963 549.155396 604.193481 549.155396 601.498718 C 549.155396 597.876953 550.497375 595.090576 553.181396 593.139526 C 555.865356 591.188538 559.233765 590.213013 563.286743 590.213013 C 567.663025 590.213013 571.17157 591.199341 573.8125 593.171875 C 576.453369 595.14447 577.773804 597.909302 577.773804 601.46637 C 577.773804 604.031799 577.003113 606.160645 575.46167 607.852966 C 573.920288 609.545288 571.608154 610.801025 568.52533 611.620239 C 572.017761 612.180786 574.631653 613.414917 576.367126 615.322876 C 578.102539 617.230713 578.970276 619.812256 578.970276 623.067627 C 578.970276 627.14209 577.498901 630.305725 574.556213 632.558533 C 571.613525 634.811401 568.06189 635.937744 563.901123 635.937744 C 559.223022 635.937744 555.407288 634.849121 552.453796 632.671753 C 549.500305 630.494385 548.023621 627.336121 548.023621 623.196899 C 548.023621 620.286621 548.821228 617.79126 550.416565 615.710876 C 552.011841 613.630493 554.814392 612.266968 558.824219 611.620239 Z M 559.40625 601.110657 C 559.40625 604.926453 559.724243 607.373291 560.360229 608.451172 C 560.996155 609.529114 562.047119 610.068054 563.513062 610.068054 C 564.979065 610.068054 566.008423 609.442871 566.601318 608.192505 C 567.194153 606.942139 567.49054 604.549194 567.49054 601.013672 C 567.49054 598.124878 567.129456 596.206177 566.407288 595.257629 C 565.685059 594.309082 564.687988 593.834839 563.416077 593.834839 C 562.014771 593.834839 560.996155 594.309082 560.360229 595.257629 C 559.724243 596.206177 559.40625 598.157227 559.40625 601.110657 Z M 558.79187 622.226807 C 558.79187 626.236694 559.115234 628.926025 559.761963 630.294922 C 560.408752 631.663879 561.669861 632.348389 563.54541 632.348389 C 565.032959 632.348389 566.186279 631.804016 567.005493 630.715332 C 567.824707 629.626648 568.234314 627.152832 568.234314 623.293945 C 568.234314 618.917603 567.830078 616.212158 567.021667 615.177368 C 566.213257 614.142517 564.989807 613.625122 563.351379 613.625122 C 561.540527 613.625122 560.327881 614.239502 559.713501 615.468384 C 559.09906 616.697144 558.79187 618.949951 558.79187 622.226807 Z M 517.109253 635 L 517.109253 631.410583 L 518.726135 631.410583 C 520.062744 631.410583 521.065186 631.184204 521.733459 630.731506 C 522.401794 630.278809 522.735962 629.200867 522.735962 627.497803 L 522.735962 602.921509 C 522.735962 600.593262 522.42334 599.148865 521.798157 598.588379 C 521.172974 598.027832 519.405212 597.747559 516.494873 597.747559 L 516.494873 594.287476 C 522.164673 594.050415 526.616394 592.746094 529.850098 590.374756 L 533.277832 590.374756 L 533.277832 627.303711 C 533.277832 628.79126 533.520386 629.847595 534.005432 630.472778 C 534.490479 631.098022 535.541443 631.410583 537.158325 631.410583 L 538.775146 631.410583 L 538.775146 635 Z M 476.105743 630.311157 C 476.105743 628.71582 476.677032 627.341492 477.819611 626.18811 C 478.962219 625.03479 480.341919 624.45813 481.958771 624.45813 C 483.575653 624.45813 484.955353 625.03479 486.097931 626.18811 C 487.240509 627.341492 487.811798 628.71582 487.811798 630.311157 C 487.811798 631.927979 487.235138 633.307678 486.081757 634.450256 C 484.928406 635.592896 483.554077 636.164124 481.958771 636.164124 C 480.363464 636.164124 478.989166 635.592896 477.835785 634.450256 C 476.682434 633.307678 476.105743 631.927979 476.105743 630.311157 Z M 462.427124 612.008301 L 462.427124 625.816284 C 462.427124 628.122986 462.578033 629.648193 462.879852 630.391968 C 463.181671 631.135742 463.806854 631.507568 464.755402 631.507568 C 466.178253 631.507568 467.320831 630.623718 468.183167 628.855957 L 471.352203 629.923096 C 469.713776 634.019165 466.210602 636.067139 460.842621 636.067139 C 457.88913 636.067139 455.668671 635.350342 454.181152 633.916748 C 452.693634 632.483093 451.94989 630.332642 451.94989 627.465454 L 451.94989 612.008301 L 448.101776 612.008301 L 448.101776 608.515869 L 448.910217 608.548218 C 451.518738 608.548218 453.75 607.718262 455.604004 606.058228 C 457.458008 604.398254 458.57901 602.285583 458.967072 599.720154 L 462.427124 599.720154 L 462.427124 608.515869 L 470.38208 608.515869 L 470.38208 612.008301 Z M 418.351593 636.067139 L 418.125244 627.271423 L 421.294281 627.271423 C 422.97583 630.914795 426.058594 632.736389 430.542694 632.736389 C 432.418274 632.736389 433.970428 632.413025 435.199249 631.766296 C 436.42807 631.119507 437.04248 630.386597 437.04248 629.567383 C 437.04248 628.855957 436.708313 628.306213 436.040009 627.918152 C 435.350159 627.551636 433.808777 627.120483 431.415802 626.624634 C 427.707794 625.870117 424.96994 625.15332 423.202179 624.474243 C 421.434387 623.795166 420.011566 622.749634 418.933655 621.337524 C 417.855743 619.925476 417.316803 618.314026 417.316803 616.503174 C 417.316803 613.80835 418.41626 611.62561 420.615204 609.954834 C 422.814117 608.284119 425.756775 607.44873 429.443237 607.44873 C 432.28891 607.44873 435.188446 608.009277 438.141937 609.130249 C 438.659332 608.634399 439.068939 608.073975 439.370758 607.44873 L 442.054718 607.44873 L 442.345764 615.468384 L 439.758789 615.468384 C 438.098816 612.169922 434.789673 610.520752 429.831299 610.520752 C 428.214417 610.520752 426.888611 610.784851 425.853821 611.312988 C 424.819031 611.841187 424.301636 612.514893 424.301636 613.334106 C 424.301636 614.196411 424.722015 614.832397 425.562775 615.242004 C 426.381989 615.651611 428.386871 616.169006 431.577484 616.794189 C 434.897461 617.462524 437.392792 618.141602 439.063538 618.831421 C 440.734314 619.52124 442.049347 620.529114 443.008667 621.85498 C 443.968018 623.180786 444.447693 624.716797 444.447693 626.463013 C 444.447693 629.287109 443.197327 631.593811 440.696564 633.383179 C 438.195831 635.172485 435.102264 636.067139 431.415802 636.067139 C 428.591675 636.067139 425.638245 635.463501 422.55542 634.256226 C 421.973358 634.687378 421.542206 635.291016 421.261932 636.067139 Z M 389.959564 614.045532 L 389.959564 624.878479 C 389.959564 626.948059 390.078125 628.300781 390.315277 628.936768 C 390.552429 629.572754 391.188385 630.100952 392.223175 630.521301 C 393.257965 630.94165 394.831696 631.151855 396.944397 631.151855 C 399.811646 631.151855 401.918915 630.796143 403.266296 630.084717 C 404.613708 629.373291 405.820953 628.122986 406.888062 626.333618 C 407.9552 624.544312 408.725891 622.636475 409.200165 620.609985 L 412.82193 620.609985 L 412.530914 635 L 372.432831 635 L 372.432831 631.410583 L 373.241272 631.410583 C 375.41864 631.410583 376.83606 631.006348 377.493591 630.197937 C 378.151123 629.389526 378.479889 628.004395 378.479889 626.042603 L 378.479889 600.043579 C 378.479889 598.038574 378.14035 596.642761 377.461273 595.855835 C 376.782166 595.06897 375.375519 594.675537 373.241272 594.675537 L 372.432831 594.675537 L 372.432831 591.150818 L 409.782257 591.150818 L 410.428986 602.50116 L 406.80722 602.50116 C 406.160492 600.517822 405.438293 598.938721 404.640625 597.763794 C 403.842987 596.588867 403.039948 595.834351 402.231506 595.500122 C 401.423096 595.166016 400.05954 594.998901 398.140869 594.998901 L 389.959564 594.998901 L 389.959564 610.13269 L 394.034058 610.13269 C 395.974304 610.13269 397.26239 609.766235 397.898346 609.033264 C 398.534302 608.300293 398.895416 606.855896 398.981628 604.700073 L 402.635742 604.700073 L 402.635742 619.575195 L 398.981628 619.575195 C 399.003204 619.294922 399.013977 619.090088 399.013977 618.960815 C 399.013977 617.710388 398.749878 616.578613 398.22171 615.565369 C 397.693542 614.552124 396.34079 614.045532 394.163391 614.045532 Z"/>
    <path id="Path" fill="none" stroke="#08755e" stroke-width="20" stroke-linecap="round" stroke-linejoin="round" d="M 95 377.999023 L 95 684 L 928 684 L 928 377.999023 C 928 377.999023 789.287964 377.903381 772 378 C 761.404114 378.059204 805.927979 378.68103 928 377.999023 M 95 377.999023 L 256 377.999023"/>
    <path id="Lawrence-Debate-Union" fill="#08755e" fill-rule="evenodd" stroke="none" d="M 295.886719 543.611328 C 289.441376 543.611328 283.923859 541.649109 279.333984 537.726563 C 274.74411 533.804016 272.449219 528.507202 272.449219 521.833984 C 272.449219 515.160767 274.669891 509.919922 279.113281 506.111328 C 283.556671 502.302734 288.904266 500.398438 295.154297 500.398438 C 301.43689 500.398438 306.589172 502.149048 310.609375 505.648438 C 314.629578 509.147827 316.638672 514.444641 316.638672 521.541016 L 289.392578 521.541016 C 289.392578 526.847046 290.294922 530.834595 292.101563 533.503906 C 293.908203 536.173218 296.61911 537.507813 300.232422 537.507813 C 304.073578 537.507813 307.605438 535.554688 310.828125 531.648438 L 315.369141 534.382813 C 313.513672 537.052124 310.853546 539.258423 307.386719 541 C 303.919891 542.741577 300.085968 543.611328 295.886719 543.611328 Z M 456.287109 543.611328 C 451.827454 543.611328 448.474609 542.528015 446.228516 540.363281 C 443.982422 538.198547 442.859375 534.952515 442.859375 530.623047 L 442.859375 507.283203 L 437.048828 507.283203 L 437.048828 502.009766 L 438.269531 502.058594 C 442.208344 502.058594 445.577454 500.805359 448.376953 498.298828 C 451.176453 495.792297 452.869141 492.602234 453.455078 488.728516 L 458.679688 488.728516 L 458.679688 502.009766 L 470.691406 502.009766 L 470.691406 507.283203 L 458.679688 507.283203 L 458.679688 528.132813 C 458.679688 531.615906 458.907562 533.919922 459.363281 535.042969 C 459.819 536.166016 460.763 536.726563 462.195313 536.726563 C 464.34375 536.726563 466.069 535.391968 467.371094 532.722656 L 472.15625 534.333984 C 469.682281 540.518921 464.392609 543.611328 456.287109 543.611328 Z M 499.402344 543.611328 C 492.957001 543.611328 487.439484 541.649109 482.849609 537.726563 C 478.259735 533.804016 475.964844 528.507202 475.964844 521.833984 C 475.964844 515.160767 478.185516 509.919922 482.628906 506.111328 C 487.072296 502.302734 492.419891 500.398438 498.669922 500.398438 C 504.952515 500.398438 510.104797 502.149048 514.125 505.648438 C 518.145203 509.147827 520.154297 514.444641 520.154297 521.541016 L 492.908203 521.541016 C 492.908203 526.847046 493.810547 530.834595 495.617188 533.503906 C 497.423828 536.173218 500.134735 537.507813 503.748047 537.507813 C 507.589203 537.507813 511.121063 535.554688 514.34375 531.648438 L 518.884766 534.382813 C 517.029297 537.052124 514.369141 539.258423 510.902344 541 C 507.435516 542.741577 503.601593 543.611328 499.402344 543.611328 Z M 747.546875 543.611328 C 740.906189 543.611328 735.193359 541.746765 730.408203 538.019531 C 725.623047 534.292297 723.230469 528.914063 723.230469 521.882813 C 723.230469 515.177063 725.60675 509.919922 730.359375 506.111328 C 735.112 502.302734 740.857361 500.398438 747.595703 500.398438 C 754.171265 500.398438 759.900391 502.246704 764.783203 505.941406 C 769.666016 509.636108 772.107422 514.965454 772.107422 521.931641 C 772.107422 528.539734 769.714844 533.804016 764.929688 537.726563 C 760.144531 541.649109 754.350281 543.611328 747.546875 543.611328 Z M 587.537109 543.367188 C 582.426392 543.367188 577.845703 542.528015 573.792969 540.851563 C 569.740234 539.17511 566.638672 537.059265 564.490234 534.503906 C 562.341797 531.948547 560.886047 529.167358 560.121094 526.15625 C 559.35614 523.145142 558.972656 519.571655 558.972656 515.4375 L 558.972656 489.314453 C 558.972656 486.189453 558.435547 484.057312 557.361328 482.917969 C 556.287109 481.778625 553.943359 481.208984 550.330078 481.208984 L 550.330078 475.789063 L 585.291016 475.789063 L 585.291016 481.208984 L 584.167969 481.208984 C 580.880188 481.208984 578.748047 481.811218 577.771484 483.015625 C 576.794922 484.220032 576.306641 486.319641 576.306641 489.314453 L 576.306641 515.4375 C 576.306641 520.190125 576.697266 523.933594 577.478516 526.667969 C 578.259766 529.402344 579.96875 531.729797 582.605469 533.650391 C 585.242188 535.570984 588.399719 536.53125 592.078125 536.53125 C 596.082031 536.53125 599.507141 535.505859 602.355469 533.455078 C 605.203796 531.404297 607.052063 528.906921 607.898438 525.960938 C 608.744812 523.014954 609.167969 518.904297 609.167969 513.630859 L 609.167969 491.365234 C 609.167969 484.59436 605.896545 481.208984 599.353516 481.208984 L 599.353516 475.789063 L 623.865234 475.789063 L 623.865234 481.208984 C 622.465515 481.208984 621.000671 481.608704 619.470703 482.40625 C 617.940735 483.203796 616.882813 484.310547 616.296875 485.726563 C 615.710938 487.142578 615.417969 489.119141 615.417969 491.658203 L 615.417969 513.777344 C 615.417969 518.529968 615.117859 522.410767 614.515625 525.421875 C 613.913391 528.432983 612.488281 531.330078 610.242188 534.113281 C 607.996094 536.896484 604.871094 539.135376 600.867188 540.828125 C 596.863281 542.520874 592.419922 543.367188 587.537109 543.367188 Z M 354.578125 543.171875 C 351.485657 543.171875 348.563171 542.569702 345.8125 541.365234 C 343.061829 540.160767 340.466797 538.370483 338.025391 535.994141 L 329.333984 543.074219 L 325.28125 543.074219 L 325.28125 489.65625 C 325.28125 487.182251 324.897797 485.482422 324.132813 484.554688 C 323.367828 483.626953 321.537781 483.162109 318.640625 483.162109 L 318.640625 477.986328 L 341.101563 474.617188 L 341.101563 505.378906 C 343.25 503.71875 345.479797 502.474609 347.791016 501.644531 C 350.102234 500.814453 352.494781 500.398438 354.96875 500.398438 C 360.600281 500.398438 365.385406 502.34436 369.324219 506.234375 C 373.263031 510.12439 375.232422 515.209595 375.232422 521.492188 C 375.232422 528.067749 373.223328 533.324829 369.203125 537.263672 C 365.182922 541.202515 360.307312 543.171875 354.578125 543.171875 Z M 394.910156 542.927734 C 391.166656 542.927734 388.360046 542.081421 386.488281 540.388672 C 384.616516 538.695923 383.679688 536.596375 383.679688 534.089844 C 383.679688 530.541626 385.551422 527.400391 389.294922 524.666016 C 393.038422 521.931641 399.809204 518.904297 409.607422 515.583984 L 409.607422 511.970703 C 409.607422 509.399048 408.988953 507.748047 407.751953 507.015625 C 406.514954 506.283203 405.05014 505.916016 403.357422 505.916016 C 399.255829 505.916016 396.977203 507.413391 396.521484 510.408203 C 396.195953 512.458984 395.544922 513.947266 394.568359 514.875 C 393.591797 515.802734 392.078125 516.267578 390.027344 516.267578 C 388.171875 516.267578 386.69989 515.770142 385.609375 514.777344 C 384.51886 513.784546 383.972656 512.621765 383.972656 511.287109 C 383.972656 508.259766 385.974579 505.688171 389.978516 503.572266 C 393.982452 501.45636 399.337219 500.398438 406.042969 500.398438 C 409.786469 500.398438 412.91861 500.626282 415.441406 501.082031 C 417.964203 501.537781 420.000641 502.384094 421.546875 503.621094 C 423.093109 504.858093 424.116547 506.160156 424.621094 507.527344 C 425.125641 508.894531 425.378906 510.75 425.378906 513.09375 L 425.378906 531.648438 C 425.378906 534.447937 426.22525 535.847656 427.917969 535.847656 C 429.382813 535.847656 430.310547 534.936218 430.701172 533.113281 L 434.753906 533.113281 C 434.65625 536.466187 433.426453 538.940063 431.066406 540.535156 C 428.70636 542.130249 425.883484 542.927734 422.595703 542.927734 C 416.606079 542.927734 412.569672 541.202515 410.486328 537.751953 C 408.110016 539.477234 405.626953 540.770142 403.039063 541.632813 C 400.451172 542.495483 397.742188 542.927734 394.910156 542.927734 Z M 190.759766 542 L 190.759766 536.580078 C 194.242859 536.580078 196.554031 536.035828 197.693359 534.945313 C 198.832687 533.854797 199.402344 531.697266 199.402344 528.474609 L 199.402344 489.265625 C 199.402344 486.140625 198.865234 484.008484 197.791016 482.869141 C 196.716797 481.729797 194.373062 481.160156 190.759766 481.160156 L 190.759766 475.789063 L 198.71875 475.496094 C 206.726501 475.170593 213.009094 475.007813 217.566406 475.007813 C 225.183624 475.007813 231.375626 475.447266 236.144531 476.326172 C 240.913437 477.205078 245.423813 479.134766 249.671875 482.113281 C 253.919937 485.091797 257.189453 488.947266 259.484375 493.683594 C 261.779297 498.419922 262.927734 503.637329 262.927734 509.333984 C 262.927734 515.160828 261.714203 520.369141 259.289063 524.958984 C 256.863922 529.548828 253.601578 533.210938 249.5 535.945313 C 245.398422 538.679688 241.150406 540.372437 236.755859 541.023438 C 232.361313 541.674438 224.971954 542 214.587891 542 L 190.759766 542 Z M 627.820313 542 L 627.820313 536.824219 C 630.652344 536.824219 632.458984 536.37561 633.240234 535.480469 C 634.021484 534.585327 634.412109 532.901733 634.412109 530.427734 L 634.412109 516.755859 C 634.412109 514.28186 634.030579 512.580078 633.265625 511.652344 C 632.500671 510.724609 630.684937 510.261719 627.820313 510.261719 L 627.820313 505.085938 L 649.5 501.521484 C 650.053406 502.791016 650.378906 504.744141 650.476563 507.380859 C 652.625 505.037109 654.878235 503.288391 657.238281 502.132813 C 659.598328 500.977234 662.048828 500.398438 664.587891 500.398438 C 669.145203 500.398438 672.725891 501.660767 675.330078 504.183594 C 677.934265 506.706421 679.236328 510.164063 679.236328 514.558594 L 679.236328 530.427734 C 679.236328 532.869141 679.636047 534.545532 680.433594 535.457031 C 681.23114 536.36853 682.963501 536.824219 685.632813 536.824219 L 685.632813 542 L 658.435547 542 L 658.435547 536.824219 C 659.802734 536.759155 660.951172 536.36853 661.878906 535.652344 C 662.806641 534.936157 663.269531 533.194702 663.269531 530.427734 L 663.269531 515.779297 C 663.269531 513.109985 662.904297 511.287109 662.171875 510.310547 C 661.439453 509.333984 660.388672 508.845703 659.021484 508.845703 C 657.654297 508.845703 656.254578 509.317688 654.822266 510.261719 C 653.389954 511.20575 651.941406 512.638 650.476563 514.558594 L 650.476563 530.427734 C 650.476563 532.706421 650.818359 534.333984 651.501953 535.310547 C 652.185547 536.287109 653.40625 536.791626 655.164063 536.824219 L 655.164063 542 L 627.820313 542 Z M 687.927734 542 L 687.927734 536.824219 L 689.050781 536.824219 C 691.817749 536.824219 693.568359 536.335938 694.300781 535.359375 C 695.033203 534.382813 695.398438 532.706421 695.398438 530.330078 L 695.398438 515.779297 C 695.398438 513.370422 695.024109 511.686829 694.275391 510.726563 C 693.526672 509.766296 691.785156 509.285156 689.050781 509.285156 L 687.927734 509.285156 L 687.927734 504.109375 L 711.169922 500.398438 L 711.169922 530.330078 C 711.169922 532.804077 711.560547 534.505859 712.341797 535.433594 C 713.123047 536.361328 714.945923 536.824219 717.810547 536.824219 L 717.810547 542 L 687.927734 542 Z M 777.820313 542 L 777.820313 536.824219 C 780.652344 536.824219 782.458984 536.37561 783.240234 535.480469 C 784.021484 534.585327 784.412109 532.901733 784.412109 530.427734 L 784.412109 516.755859 C 784.412109 514.28186 784.030579 512.580078 783.265625 511.652344 C 782.500671 510.724609 780.684937 510.261719 777.820313 510.261719 L 777.820313 505.085938 L 799.5 501.521484 C 800.053406 502.791016 800.378906 504.744141 800.476563 507.380859 C 802.625 505.037109 804.878235 503.288391 807.238281 502.132813 C 809.598328 500.977234 812.048828 500.398438 814.587891 500.398438 C 819.145203 500.398438 822.725891 501.660767 825.330078 504.183594 C 827.934265 506.706421 829.236328 510.164063 829.236328 514.558594 L 829.236328 530.427734 C 829.236328 532.869141 829.636047 534.545532 830.433594 535.457031 C 831.23114 536.36853 832.963501 536.824219 835.632813 536.824219 L 835.632813 542 L 808.435547 542 L 808.435547 536.824219 C 809.802734 536.759155 810.951172 536.36853 811.878906 535.652344 C 812.806641 534.936157 813.269531 533.194702 813.269531 530.427734 L 813.269531 515.779297 C 813.269531 513.109985 812.904297 511.287109 812.171875 510.310547 C 811.439453 509.333984 810.388672 508.845703 809.021484 508.845703 C 807.654297 508.845703 806.254578 509.317688 804.822266 510.261719 C 803.389954 511.20575 801.941406 512.638 800.476563 514.558594 L 800.476563 530.427734 C 800.476563 532.706421 800.818359 534.333984 801.501953 535.310547 C 802.185547 536.287109 803.40625 536.791626 805.164063 536.824219 L 805.164063 542 L 777.820313 542 Z M 747.742188 538.240234 C 750.053406 538.240234 751.901672 537.198608 753.285156 535.115234 C 754.66864 533.03186 755.359375 528.588562 755.359375 521.785156 C 755.359375 515.60022 754.740906 511.408203 753.503906 509.210938 C 752.266907 507.013672 750.313843 505.916016 747.644531 505.916016 C 745.528625 505.916016 743.721985 506.850891 742.224609 508.722656 C 740.727234 510.594421 739.978516 514.81897 739.978516 521.394531 C 739.978516 527.644531 740.555359 532.013672 741.710938 534.503906 C 742.866516 536.994141 744.877563 538.240234 747.742188 538.240234 Z M 350.085938 536.53125 C 352.885437 536.53125 354.985016 535.310547 356.384766 532.869141 C 357.784515 530.427734 358.484375 526.765625 358.484375 521.882813 C 358.484375 517 357.800781 513.347046 356.433594 510.921875 C 355.066406 508.496704 353.015625 507.283203 350.28125 507.283203 C 348.621094 507.283203 347.026062 507.682922 345.496094 508.480469 C 343.966125 509.278015 342.501312 510.489563 341.101563 512.117188 L 341.101563 530.964844 C 342.436218 532.820313 343.852203 534.212891 345.349609 535.140625 C 346.847015 536.068359 348.425781 536.53125 350.085938 536.53125 Z M 224.841797 536.140625 C 230.961624 536.140625 235.542297 533.894531 238.585938 529.402344 C 241.629578 524.910156 243.152344 518.188232 243.152344 509.236328 C 243.152344 502.009705 242.029312 496.257202 239.783203 491.976563 C 237.537094 487.695923 234.623718 484.789734 231.042969 483.259766 C 227.462219 481.729797 222.69339 480.964844 216.736328 480.964844 L 216.736328 526.570313 C 216.736328 529.5 216.875656 531.46936 217.152344 532.478516 C 217.429031 533.487671 218.1595 534.35022 219.347656 535.066406 C 220.535812 535.782593 222.367828 536.140625 224.841797 536.140625 Z M 403.113281 535.75 C 404.285156 535.75 405.408203 535.473267 406.482422 534.919922 C 407.556641 534.366577 408.598297 533.552734 409.607422 532.478516 L 409.607422 521.052734 C 405.082672 522.940796 402.129578 524.649719 400.746094 526.179688 C 399.36261 527.709656 398.669922 529.288391 398.669922 530.916016 C 398.669922 532.153015 399.076813 533.268921 399.890625 534.261719 C 400.704437 535.254517 401.778625 535.75 403.113281 535.75 Z M 289.34375 516.609375 L 301.697266 516.609375 C 301.501953 509.415344 299.402374 505.818359 295.398438 505.818359 C 293.380188 505.818359 291.866547 506.713562 290.857422 508.503906 C 289.848297 510.29425 289.34375 512.996094 289.34375 516.609375 Z M 492.859375 516.609375 L 505.212891 516.609375 C 505.017578 509.415344 502.917999 505.818359 498.914063 505.818359 C 496.895813 505.818359 495.382172 506.713562 494.373047 508.503906 C 493.363922 510.29425 492.859375 512.996094 492.859375 516.609375 Z M 703.503906 492.292969 C 700.997375 492.292969 698.906921 491.406921 697.230469 489.632813 C 695.554016 487.858704 694.714844 485.798828 694.714844 483.455078 C 694.714844 481.046204 695.577454 478.971985 697.302734 477.230469 C 699.028015 475.488953 701.095032 474.617188 703.503906 474.617188 C 705.945313 474.617188 708.01239 475.479797 709.705078 477.205078 C 711.397766 478.930359 712.244141 481.013672 712.244141 483.455078 C 712.244141 485.896484 711.388672 487.979797 709.679688 489.705078 C 707.970703 491.430359 705.912781 492.292969 703.503906 492.292969 Z M 554.992188 405.611328 C 548.546814 405.611328 543.03125 403.649109 538.441406 399.726563 C 533.851563 395.804016 531.554688 390.507202 531.554688 383.833984 C 531.554688 377.160767 533.777344 371.919922 538.220703 368.111328 C 542.664063 364.302734 548.011658 362.398438 554.261719 362.398438 C 560.544312 362.398438 565.694641 364.149048 569.714844 367.648438 C 573.735046 371.147827 575.746094 376.444641 575.746094 383.541016 L 548.5 383.541016 C 548.5 388.847046 549.402344 392.834595 551.208984 395.503906 C 553.015625 398.173218 555.726563 399.507813 559.339844 399.507813 C 563.18103 399.507813 566.710938 397.554688 569.933594 393.648438 L 574.476563 396.382813 C 572.621094 399.052124 569.958984 401.258484 566.492188 403 C 563.025391 404.741516 559.191406 405.611328 554.992188 405.611328 Z M 666.761719 405.611328 C 660.218689 405.611328 654.675781 403.779297 650.134766 400.117188 C 645.59375 396.455078 643.324219 391.402405 643.324219 384.957031 C 643.324219 378.186157 645.798157 372.733765 650.746094 368.599609 C 655.694031 364.465454 662.10675 362.398438 669.984375 362.398438 C 674.867188 362.398438 678.73175 363.29364 681.580078 365.083984 C 684.428406 366.874329 685.851563 369.234375 685.851563 372.164063 C 685.851563 373.824219 685.291016 375.281921 684.167969 376.535156 C 683.044922 377.788391 681.587219 378.414063 679.796875 378.414063 C 676.248657 378.414063 673.988281 376.102905 673.011719 371.480469 C 672.71875 370.113281 672.277344 369.136719 671.691406 368.550781 C 671.105469 367.964844 670.096375 367.671875 668.664063 367.671875 C 665.766907 367.671875 663.595032 368.818359 662.146484 371.113281 C 660.697937 373.408203 659.972656 376.851563 659.972656 381.441406 C 659.972656 387.723999 660.844421 392.241516 662.585938 394.992188 C 664.327454 397.742859 667.054688 399.117188 670.765625 399.117188 C 675.84375 399.117188 679.522095 396.64325 681.800781 391.695313 L 686.78125 393.892578 C 685.414063 397.636108 682.93103 400.524048 679.333984 402.558594 C 675.736938 404.59314 671.546875 405.611328 666.761719 405.611328 Z M 716.46875 405.611328 C 710.023376 405.611328 704.503906 403.649109 699.914063 399.726563 C 695.324219 395.804016 693.03125 390.507202 693.03125 383.833984 C 693.03125 377.160767 695.251953 371.919922 699.695313 368.111328 C 704.138672 364.302734 709.484314 362.398438 715.734375 362.398438 C 722.016968 362.398438 727.16925 364.149048 731.189453 367.648438 C 735.209656 371.147827 737.21875 376.444641 737.21875 383.541016 L 709.972656 383.541016 C 709.972656 388.847046 710.876953 392.834595 712.683594 395.503906 C 714.490234 398.173218 717.199219 399.507813 720.8125 399.507813 C 724.653687 399.507813 728.1875 397.554688 731.410156 393.648438 L 735.949219 396.382813 C 734.09375 399.052124 731.433594 401.258484 727.966797 403 C 724.5 404.741516 720.667969 405.611328 716.46875 405.611328 Z M 362.855469 404.927734 C 359.111969 404.927734 356.303406 404.08136 354.431641 402.388672 C 352.559875 400.695984 351.625 398.596375 351.625 396.089844 C 351.625 392.541626 353.494781 389.400391 357.238281 386.666016 C 360.981781 383.931641 367.752563 380.904297 377.550781 377.583984 L 377.550781 373.970703 C 377.550781 371.399048 376.932312 369.748047 375.695313 369.015625 C 374.458313 368.283203 372.9935 367.916016 371.300781 367.916016 C 367.199188 367.916016 364.920563 369.413391 364.464844 372.408203 C 364.139313 374.458984 363.488281 375.947266 362.511719 376.875 C 361.535156 377.802734 360.023438 378.267578 357.972656 378.267578 C 356.117188 378.267578 354.64325 377.770203 353.552734 376.777344 C 352.462219 375.784485 351.917969 374.621765 351.917969 373.287109 C 351.917969 370.259766 353.917938 367.688171 357.921875 365.572266 C 361.925812 363.45636 367.282532 362.398438 373.988281 362.398438 C 377.731781 362.398438 380.863922 362.626282 383.386719 363.082031 C 385.909515 363.537781 387.944 364.384094 389.490234 365.621094 C 391.036469 366.858093 392.061859 368.160156 392.566406 369.527344 C 393.070953 370.894531 393.324219 372.75 393.324219 375.09375 L 393.324219 393.648438 C 393.324219 396.447937 394.170563 397.847656 395.863281 397.847656 C 397.328125 397.847656 398.253906 396.936218 398.644531 395.113281 L 402.699219 395.113281 C 402.601563 398.466187 401.371765 400.940125 399.011719 402.535156 C 396.651672 404.130188 393.826843 404.927734 390.539063 404.927734 C 384.549438 404.927734 380.513031 403.202515 378.429688 399.751953 C 376.053375 401.477234 373.572266 402.770203 370.984375 403.632813 C 368.396484 404.495422 365.6875 404.927734 362.855469 404.927734 Z M 421.839844 404.878906 L 409.289063 375.826172 C 407.954407 372.733704 406.865875 370.854797 406.019531 370.1875 C 405.173187 369.520203 403.917969 369.185547 402.257813 369.185547 L 402.257813 364.009766 L 429.066406 364.009766 L 429.066406 369.185547 C 425.713531 369.185547 424.035156 369.804016 424.035156 371.041016 C 424.035156 371.659485 424.393219 372.847656 425.109375 374.605469 L 431.359375 389.644531 L 443.03125 364.009766 L 451.378906 364.009766 L 463.246094 389.644531 L 469.542969 373.873047 C 469.901031 372.929016 470.082031 372.212891 470.082031 371.724609 C 470.082031 370.031921 468.194031 369.185547 464.417969 369.185547 L 464.417969 364.009766 L 481.800781 364.009766 L 481.800781 369.185547 C 480.010406 369.185547 478.643219 369.729797 477.699219 370.820313 C 476.755219 371.910828 475.485687 374.377563 473.890625 378.21875 L 462.660156 404.878906 L 454.066406 404.878906 L 442.003906 379.292969 L 430.480469 404.878906 L 421.839844 404.878906 Z M 285.460938 404 L 285.460938 398.580078 L 286.4375 398.580078 C 289.757843 398.580078 291.915375 397.970703 292.908203 396.75 C 293.901031 395.529297 294.398438 393.43689 294.398438 390.474609 L 294.398438 351.314453 C 294.398438 348.287109 293.877625 346.180359 292.835938 344.992188 C 291.79425 343.804016 289.660187 343.208984 286.4375 343.208984 L 285.460938 343.208984 L 285.460938 337.789063 L 320.960938 337.789063 L 320.960938 343.208984 L 319.640625 343.208984 C 316.320282 343.208984 314.164703 343.818359 313.171875 345.039063 C 312.179047 346.259766 311.683594 348.352173 311.683594 351.314453 L 311.683594 389.107422 C 311.683594 391.939453 311.846344 393.811218 312.171875 394.722656 C 312.497406 395.634094 313.350891 396.422546 314.734375 397.089844 C 316.117859 397.757141 318.533844 398.091797 321.984375 398.091797 C 327.778687 398.091797 332.108063 396.636108 334.972656 393.722656 C 337.83725 390.809204 339.790344 386.893921 340.832031 381.978516 L 346.105469 381.978516 L 345.8125 404 L 285.460938 404 Z M 483.65625 404 L 483.65625 398.824219 C 486.488281 398.824219 488.278656 398.352234 489.027344 397.408203 C 489.776031 396.464172 490.148438 394.771484 490.148438 392.330078 L 490.148438 378.365234 C 490.148438 375.891235 489.766937 374.189453 489.001953 373.261719 C 488.236969 372.333984 486.423187 371.871094 483.558594 371.871094 L 483.558594 366.695313 L 503.820313 362.398438 C 504.731781 365.035156 505.252594 368.388 505.382813 372.457031 C 507.270844 369.104126 509.41925 366.590515 511.828125 364.914063 C 514.237 363.23761 516.891907 362.398438 519.789063 362.398438 C 522.55603 362.398438 524.653625 363.270203 526.085938 365.011719 C 527.51825 366.753235 528.234375 368.648438 528.234375 370.699219 C 528.234375 372.619812 527.666687 374.263672 526.527344 375.630859 C 525.388 376.998047 523.792969 377.681641 521.742188 377.681641 C 520.635437 377.681641 519.723938 377.470032 519.007813 377.046875 C 518.291687 376.623718 517.347656 375.744812 516.175781 374.410156 C 515.003906 373.108093 513.734375 372.457031 512.367188 372.457031 C 510.251282 372.457031 508.663422 373.751953 507.605469 376.339844 C 506.547516 378.927734 506.019531 382.808594 506.019531 387.984375 L 506.019531 392.330078 C 506.019531 394.738953 506.391937 396.422546 507.140625 397.382813 C 507.889313 398.343079 509.614563 398.824219 512.316406 398.824219 L 513.292969 398.824219 L 513.292969 404 L 483.65625 404 Z M 581.3125 404 L 581.3125 398.824219 C 584.144531 398.824219 585.949219 398.375671 586.730469 397.480469 C 587.511719 396.585266 587.902344 394.901733 587.902344 392.427734 L 587.902344 378.755859 C 587.902344 376.28186 587.520813 374.580078 586.755859 373.652344 C 585.990906 372.724609 584.177124 372.261719 581.3125 372.261719 L 581.3125 367.085938 L 602.992188 363.521484 C 603.545593 364.791016 603.871094 366.744141 603.96875 369.380859 C 606.117188 367.037109 608.370422 365.288391 610.730469 364.132813 C 613.090515 362.977234 615.539063 362.398438 618.078125 362.398438 C 622.635437 362.398438 626.216125 363.660767 628.820313 366.183594 C 631.4245 368.706421 632.726563 372.164063 632.726563 376.558594 L 632.726563 392.427734 C 632.726563 394.869141 633.126282 396.545593 633.923828 397.457031 C 634.721375 398.368469 636.455688 398.824219 639.125 398.824219 L 639.125 404 L 611.925781 404 L 611.925781 398.824219 C 613.292969 398.759094 614.441406 398.368469 615.369141 397.652344 C 616.296875 396.936218 616.761719 395.194702 616.761719 392.427734 L 616.761719 377.779297 C 616.761719 375.109985 616.394531 373.287109 615.662109 372.310547 C 614.929688 371.333984 613.878906 370.845703 612.511719 370.845703 C 611.144531 370.845703 609.744812 371.317688 608.3125 372.261719 C 606.880188 373.20575 605.433594 374.638 603.96875 376.558594 L 603.96875 392.427734 C 603.96875 394.706421 604.308594 396.333984 604.992188 397.310547 C 605.675781 398.287109 606.898438 398.791687 608.65625 398.824219 L 608.65625 404 L 581.3125 404 Z M 371.058594 397.75 C 372.230469 397.75 373.351563 397.473328 374.425781 396.919922 C 375.5 396.366516 376.541656 395.552734 377.550781 394.478516 L 377.550781 383.052734 C 373.026031 384.940735 370.072937 386.649719 368.689453 388.179688 C 367.305969 389.709656 366.613281 391.288391 366.613281 392.916016 C 366.613281 394.153015 367.022125 395.26886 367.835938 396.261719 C 368.64975 397.254578 369.723938 397.75 371.058594 397.75 Z M 548.449219 378.609375 L 560.804688 378.609375 C 560.609375 371.415344 558.507813 367.818359 554.503906 367.818359 C 552.485657 367.818359 550.973938 368.713562 549.964844 370.503906 C 548.95575 372.29425 548.449219 374.996094 548.449219 378.609375 Z M 709.925781 378.609375 L 722.277344 378.609375 C 722.082031 371.415344 719.984375 367.818359 715.980469 367.818359 C 713.962219 367.818359 712.446594 368.713562 711.4375 370.503906 C 710.428406 372.29425 709.925781 374.996094 709.925781 378.609375 Z"/>
</svg>
