<svg xmlns="http://www.w3.org/2000/svg" width="1800" height="400" xmlns:v="https://vecta.io/nano"><path d="M117 343c-5.5-2.8-8.2-5.8-10-11-1.8-5.3-1.4-9.3 1.6-15l2.8-5.4 190-132 194-133c5.3-1.6 11-1.3 15 .81 3.2 1.5 342 236 375 259 9.4 6.7 12 11 12 19-.056 14-13 23-26 19-1.9-.71-85-58-185-127l-184-126c-1.5-.29-51 34-181 123l-184 127c-7.3 4.8-14 5.4-21 1.8zm259-8.9c-8.8-2.1-16-6.5-23-14-10-10-15-21-15-35s4.8-25 15-35c20-20 50-20 70-.23 11 11 17 28 15 43-4.9 29-33 48-61 41zm230 0c-8.8-2.1-16-6.5-23-14-10-10-15-21-15-35s4.8-25 15-35c20-20 50-20 70-.23 11 11 17 28 15 43-4.9 29-33 48-61 41zm383-14c-14-1.3-34-6.4-38-9.3-.92-.75-1.2-5.9-1.2-20v-18l2.2.53c1.2.29 7.4 2.3 14 4.5 17 6 26 7.6 42 7.7 12 .018 14-.2 18-2.3 7.4-4 10-11 6.6-18-2.3-4.8-10-9.6-31-19-29-13-35-16-42-26-7-8.4-8.5-14-8.6-30-.032-13 .034-14 3.2-20 4.1-8.3 13-17 21-21 20-9.4 53-11 80-2.9 9.4 2.7 22 7.9 22 9 0 1.6-12 30-13 32-.95 1-3 .52-10-2.4-14-5.5-26-8.4-36-8.4-15 .009-21 3.2-21 10 0 9.2 4.4 12 40 27 32 13 44 27 44 52 .034 11-1.4 17-5.4 25-6.6 13-21 23-40 27-11 2.3-33 3.2-46 2zm178 .26c-27-3.1-41-17-44-45-.57-4.7-1-28-1-51v-43h-9.4c-5.2 0-10-.27-11-.61-1.3-.5-1.6-2.4-1.6-10v-9.7l12-7.2c6.5-3.9 13-7.9 13-8.9s4.1-8.9 7.3-18 6.3-17 6.8-17c.74-.95 4.6-1.2 15-1l14 .28 1 36 48 1 .28 16c.18 11-.097 17-.8 18-.67.68-9.7 1.3-24 1.6l-23 .5-.26 40c-.15 24 .15 43 .73 46 1.2 6.6 3.8 10 8.8 13 5.3 2.6 21 2.5 31-.33 5.5-1.5 8-1.7 8.8-.98 1.6 1.6 1.4 31-.17 33-3.7 4.8-36 9.8-52 8zm150-.24c-22-2.5-42-13-54-29-5.3-6.9-12-20-14-29-5.6-20-5.2-48 1-67 6.4-20 20-36 36-44 14-6.9 22-8.5 42-8.6 15-.093 18 .19 25 2.2 27 7.3 44 24 53 50 5.7 16 7.2 37 4.3 56-5.5 36-28 61-60 67-9 1.9-24 2.6-33 1.6zm21-38c14-3.4 22-14 25-36 1.3-9.9.78-28-1.1-36-2.8-13-9.2-22-18-26-4.5-2-6.7-2.4-16-2.3-12 .081-16 1.3-22 7.1-4.7 4.3-8 10-11 19-1.4 5-1.8 10-1.8 23-.033 19 1.4 27 6.9 37 6.9 13 21 18 38 14zm320 38c-41-5.2-67-29-73-69-3.7-24-.33-49 9.3-69 3.9-7.9 6.1-11 13-18 14-14 29-21 53-22 20-.93 36 2.7 50 11 9.2 5.5 19 16 24 27 6.6 14 8 22 8.1 44l.034 18-55 .26c-48 .23-55 .44-55 1.8-.32.84-.05 4.3.61 7.7 3.1 16 13 27 27 31 6.9 1.9 27 1.9 38-.11 4.8-.84 14-3.4 20-5.6l13-4.6c1.6-.5 1.8.75 1.8 17v18l-2.5 1.7c-4.2 2.7-19 7.3-29 8.9-12 1.9-34 2.6-44 1.5zm40-109c1.5-1.9-.38-12-3.4-18-3.1-6.5-10-13-17-15-6.3-2.1-17-2.1-24-.02-6.8 2.3-13 7.5-16 15-3.1 6.3-5.7 17-4.5 19 .97 1.6 63 1.3 64-.26zm-246 106c-.99-.63-1.2-19-1-86l.26-85 17-.27c20-.32 18-2.2 22 16 1.5 6.5 3.3 12 4.1 12 .76.29 2.4-1.2 4-3.7 6.7-11 20-21 32-25 6.4-2.2 29-2.7 31-.74.84.84.71 6.2-.48 21l-2 21c-.26.75-3.6.95-10 .64-28-1.3-46 11-50 34-.57 3-1 25-1 51 0 41-.17 46-1.6 46-2.4.91-43 .7-44-.22z" fill="#060606"/></svg>