<svg xmlns="http://www.w3.org/2000/svg" width="1800" height="400" xmlns:v="https://vecta.io/nano"><path d="M52.1 349c-5.55-2.81-8.22-5.83-10.1-11.4-1.8-5.31-1.38-9.29 1.6-15.2l2.75-5.41 190-132 194-133c5.3-1.59 10.8-1.3 15.5.815 3.2 1.45 342 236 375 259 9.35 6.68 12.4 11.4 12.3 19.3-.056 13.9-13.5 23.4-26.4 18.6-1.92-.707-85.2-57.9-185-127l-184-126c-1.52-.291-51.4 33.8-181 123l-184 127c-7.27 4.83-14 5.4-21.1 1.78zm259-8.91c-12.9-3.12-27-14.1-32.7-25.3-5.56-11-7.1-24.2-4.14-35.6 4.68-18 20.2-32.8 38.3-36.6 33.4-6.97 65 22.9 59.4 56.1-4.94 29.1-32.9 48.1-60.8 41.3zm230 0c-12.9-3.12-27-14.1-32.7-25.3-5.56-11-7.1-24.2-4.14-35.6 4.68-18 20.2-32.8 38.3-36.6 33.4-6.97 65 22.9 59.4 56.1-4.94 29.1-32.9 48.1-60.8 41.3zm624-13.5c-28.3-3.23-49.9-17.8-61.8-41.6-16.2-32.4-13.1-80.9 6.9-107 13.9-18.4 34.1-27.7 62.5-28.8 20.9-.805 36.7 3.08 51.2 12.6 23.9 15.7 35.9 41.2 35.9 76.6 0 37.3-12.9 63.6-38.8 78.6-13.8 8-37 12.1-55.9 9.99zm26.4-40.1c14.7-6.47 20.9-23.3 19.8-53.5-.721-20.2-3.84-30.6-11.5-38.2-6-6-11.1-7.72-23.2-7.74-8.94-.02-11.3.33-15.7 2.35-13.8 6.25-19.6 20.4-19.6 48.1 0 21.8 2.95 33.2 10.9 41.9 4.24 4.69 9.56 7.75 15.8 9.08 6.27 1.34 18.2.289 23.5-2.07zm482 40c-34.4-3.95-58.9-22-68.9-51-6.5-18.7-7.44-46.9-2.24-67.5 6.03-23.9 19.2-41.3 38.5-51 12.8-6.41 21.1-8.05 40.4-8.01 18.5.037 25.1 1.35 38.5 7.69 11.4 5.4 23.7 17.5 29.3 28.8 6.62 13.5 7.96 20.7 8.11 43.4l.126 20-54.8.259c-45.7.216-54.9.489-55.3 1.65-.947 2.47 1.53 12.8 4.67 19.6 5.7 12.2 15.9 19.1 30.9 21 15.1 1.84 39.3-2 55.9-8.87 4.06-1.68 7.78-3.06 8.25-3.06s.862 7.86.862 17.5v17.5l-2.54 1.66c-4.16 2.72-18.9 7.29-28.7 8.87-11.7 1.89-33 2.63-43 1.49zm39.1-109c1.46-1.76-.063-11.1-2.85-17.4-2.48-5.62-8.05-11.7-13.1-14.3-5.26-2.72-14.8-4.02-21.5-2.94-14.4 2.34-22.6 10.9-26 27.3-1.2 5.75-1.23 7.2-.173 7.87.713.453 15.1.83 31.9.838 24.2.012 30.9-.262 31.7-1.31zm-816 107c-.99-.4-1.25-25.3-1.25-120l1.58-120c2.06-.792 41.8-.792 43.8 0 1.4.536 1.58 4.21 1.55 31.2-.016 16.9-.454 36.4-.972 43.5-.519 7.09-.699 13.3-.402 13.8.298.482 4-2.66 8.22-6.97 12-12.3 24.4-17.1 44-17.2 29.9-.056 49.6 12.6 57.9 37.3l2.75 8.16.308 64.4c.249 52 .058 64.6-.99 65.2-2.21 1.4-42.2 1.05-44.1-.396-1.51-1.13-1.69-6.47-1.94-57.8l-.28-56.5-2.39-6c-2.87-7.21-8.99-13.5-14.8-15.3-5.59-1.68-16.9-1.54-23.1.287-6.64 1.97-14.4 8.93-17.6 15.8-5.65 12.1-5.92 15.1-6.39 69.2-.319 36.6-.749 50.2-1.6 50.7-1.29.818-42.4.921-44.4.111zm403-.588c-1.58-1.16-1.68-7.23-1.44-86.2l.259-85h35.9l2.88 10c1.58 5.5 3.26 10.4 3.73 10.9.483.499 4.05-2.41 8.22-6.7 11.7-12.1 25.9-17.6 44.9-17.7 21.7-.043 38.9 7.08 48.4 20 2 2.73 4.33 4.96 5.17 4.96s4.44-3.15 8-7c12-13 27.9-18.6 49.8-17.7 30.3 1.23 47.5 14.8 52.9 41.9 1.31 6.49 1.56 17.5 1.56 70.1 0 56-.163 62.5-1.58 63-2.76 1.06-41.4.678-43.5-.428-1.88-1-1.93-2.68-1.95-54.8-.019-58.4-.382-63.1-5.51-71.9-1.42-2.42-4.44-5.64-6.71-7.14-3.8-2.52-4.9-2.73-14.2-2.73-8.74 0-10.7.326-14.9 2.47-7.95 4.06-12.8 10.7-16.2 22.6-1.55 5.27-1.8 12-2.13 58-.334 46.8-.534 52.1-2.02 53.2-1.19.905-7.24 1.25-21.9 1.25-11.1 0-20.9-.273-21.8-.607-1.41-.542-1.58-5.95-1.59-50.8 0-27.6-.468-54.2-1.03-59.1-2.2-19.2-9.89-27.5-25.5-27.6-16.2-.05-25.5 7.46-30.8 24.9-1.88 6.17-2.06 10.2-2.58 58.9-.48 45-.768 52.4-2.06 53.2-2.36 1.49-42.3 1.25-44.3-.272z" fill="#060606"/></svg>