<svg xmlns="http://www.w3.org/2000/svg" xmlns:xlink="http://www.w3.org/1999/xlink" width="2100" height="2100"><style>.B{stroke-linejoin:round}.C{stroke-linecap:round}.D{stroke-width:50}</style><use xlink:href="#B"/><use xlink:href="#B" x="-131"/><use xlink:href="#B" x="126"/><g stroke="#000" class="B C"><path d="M348.514 1366.923v467.181" class="D"/><path d="M1021.514 529.923v467.181" stroke-width="100"/></g><use xlink:href="#B" x="543"/><use xlink:href="#B" x="798"/><use xlink:href="#B" x="667"/><path d="M1021.514 1366.923v467.181M831 1200l-312.486 1.104M1524 1201l-312.486 1.104" stroke="#000" class="B C D"/><use xlink:href="#B" x="1217"/><path d="M1796 1202c0-55.229-44.771-100-100-100s-100 44.771-100 100 44.771 100 100 100 100-44.771 100-100zm-675-1c0-55.229-44.771-100-100-100s-100 44.771-100 100 44.772 100 100 100 100-44.771 100-100zm51-915c0-82.843-67.157-150-150-150s-150 67.157-150 150 67.157 150 150 150 150-67.157 150-150zm-723 914c0-55.229-44.772-100-100-100s-100 44.771-100 100 44.772 100 100 100 100-44.771 100-100z"/><use xlink:href="#B" x="1472"/><use xlink:href="#B" x="1341"/><path d="M1695.514 1366.923v467.181" stroke="#000" class="B C D"/><defs><path id="B" d="M401 1955c0-27.614-22.386-50-50-50s-50 22.386-50 50 22.386 50 50 50 50-22.386 50-50z"/></defs></svg>