<svg xmlns="http://www.w3.org/2000/svg" viewBox="0 0 60 60"><path d="M13 28a1 1 0 00-1 1v22a1 1 0 002 0V29a1 1 0 00-1-1zM46 29v22a1 1 0 002 0V29a1 1 0 00-2 0z"/><path d="M10 5v12.638l-.232-.279A1 1 0 008 18v33.552a5.01 5.01 0 001.158 3.2l2.275 2.73A6.982 6.982 0 0016.81 60h26.378a6.982 6.982 0 005.378-2.519l2.275-2.729a5.01 5.01 0 001.158-3.2V18a1 1 0 00-1.768-.64l-.232.278V14a6.004 6.004 0 00-5-5.91V6a2.002 2.002 0 002-2V2a2.002 2.002 0 00-2-2h-6a2.002 2.002 0 00-2 2v2a2.002 2.002 0 002 2v2.09a6.005 6.005 0 00-4.952 5.186A7.922 7.922 0 0032 13a8.015 8.015 0 00-4 1.084V9a5.006 5.006 0 00-5-5 4.951 4.951 0 00-3 1.026V5a5 5 0 00-10 0zm40 46.552a3.007 3.007 0 01-.695 1.92l-2.275 2.73A4.986 4.986 0 0143.19 58H16.81a4.986 4.986 0 01-3.84-1.799l-2.275-2.729a3.007 3.007 0 01-.695-1.92V20.758l2.423 2.903a.94.94 0 00.128.103.943.943 0 00.128.115c.009.006.02.005.029.01a.969.969 0 00.208.074.999.999 0 00.16.046.99.99 0 00.208-.012.993.993 0 00.17-.017 1 1 0 00.168-.079.97.97 0 00.182-.099c.008-.006.019-.007.027-.014a.94.94 0 00.104-.13.948.948 0 00.115-.126l.305-.513a.775.775 0 011.29 0 2.717 2.717 0 003.834.882.99.99 0 00.252-.189 2.762 2.762 0 00.623-.693.775.775 0 011.291 0 2.747 2.747 0 004.71 0 .775.775 0 011.29 0 2.747 2.747 0 004.71 0 .775.775 0 011.29 0 2.747 2.747 0 004.71 0 .775.775 0 011.29 0 2.748 2.748 0 004.711-.003.752.752 0 011.285-.004l.31.52a2.73 2.73 0 01.218.256c.008.007.019.008.027.014a.97.97 0 00.182.1.53.53 0 00.338.095.554.554 0 00.368-.034.969.969 0 00.208-.073c.01-.006.02-.005.03-.01a2.825 2.825 0 01.255-.22L50 20.759zM39 2l6 .003V4h-6zm4 4v2h-2V6zm-3 4h4a4.004 4.004 0 014 4v6.034l-1.132 1.356a2.744 2.744 0 00-4.222.591.775.775 0 01-1.291 0 2.731 2.731 0 00-1.365-1.125 7.889 7.889 0 00-3.99-6.76V14a4.004 4.004 0 014-4zm-5.427 5.584a5.93 5.93 0 013.417 5.28 2.73 2.73 0 00-1.345 1.117.775.775 0 01-1.29 0 2.747 2.747 0 00-4.71 0 .775.775 0 01-1.29 0 2.675 2.675 0 00-3.348-1.123 5.939 5.939 0 011.71-4.052 6.088 6.088 0 016.856-1.222zM23 6a3.003 3.003 0 013 3v6.73a7.815 7.815 0 00-1.883 6.57.741.741 0 01-.763-.319A2.676 2.676 0 0020 20.861V9a3.003 3.003 0 013-3zm-8-4a3.003 3.003 0 013 3v17.328a.746.746 0 01-.646-.347 2.737 2.737 0 00-4.221-.59L12 20.034V5a3.003 3.003 0 013-3z"/><path d="M14 10a.997.997 0 00.707-.293l1-1a1 1 0 00-1.414-1.414l-1 1A1 1 0 0014 10zM14 14a.997.997 0 00.707-.293l1-1a1 1 0 00-1.414-1.414l-1 1A1 1 0 0014 14zM14 18a.997.997 0 00.707-.293l1-1a1 1 0 00-1.414-1.414l-1 1A1 1 0 0014 18zM22 14a.997.997 0 00.707-.293l1-1a1 1 0 00-1.414-1.414l-1 1A1 1 0 0022 14zM22 18a.997.997 0 00.707-.293l1-1a1 1 0 00-1.414-1.414l-1 1A1 1 0 0022 18z"/></svg>